<svg xmlns="http://www.w3.org/2000/svg" viewBox="0 0 1209.99 304"><defs><style>.cls-1{fill:#fff;}</style></defs><g id="Layer_2" data-name="Layer 2"><g id="Layer_1-2" data-name="Layer 1"><path class="cls-1" d="M0,142.4C0,56.4,57.6,0,145.2,0,186.4,0,220.8,9.2,250,24.4L214.8,164h-.4C153.6,45.2,121.6,18.4,93.2,18.4,75.6,18.4,62,32,62,64c0,102,83.2,185.6,168.4,185.6,11.2,0,25.2-1.6,32.8-5.2l.4.4C244.4,279.2,200.8,304,152.4,304,60.4,304,0,236.8,0,142.4Z"/><path class="cls-1" d="M277.6,150.8C277.6,72.4,330.8,0,422,0c87.6,0,152.8,65.6,152.8,153.2,0,78.4-52.4,150.8-144,150.8C343.6,304,277.6,238.8,277.6,150.8Zm235.2,96.8c0-86-88.8-225.2-146-225.2-16,0-26.8,11.6-26.8,34,0,86,90.4,225.2,145.6,225.2C503.2,281.6,512.8,270.8,512.8,247.6Z"/><path class="cls-1" d="M884.39,120.8H884C854,52,820.39,19.2,784.4,14.8V289.6h36V296h-160v-6.4h36V14.8c-35.6,4.4-69.2,37.2-99.2,106h-.4V8H884.39Z"/><path class="cls-1" d="M1210,148.4c0,94.8-66,147.6-171.6,147.6H906v-6.4h32V29.6L902.4,8h141.19C1148.79,8,1210,57.2,1210,148.4Zm-92,.4c0-87.6-29.6-134.4-82-134.4h-10V289.6h6.4C1084,289.6,1118,237.6,1118,148.8Z"/></g></g></svg>